<svg xmlns="http://www.w3.org/2000/svg" width="1920" height="573.75" viewBox="0 0 1920 573.75">
  <metadata><?xpacket begin="﻿" id="W5M0MpCehiHzreSzNTczkc9d"?>
<x:xmpmeta xmlns:x="adobe:ns:meta/" x:xmptk="Adobe XMP Core 5.6-c142 79.160924, 2017/07/13-01:06:39        ">
   <rdf:RDF xmlns:rdf="http://www.w3.org/1999/02/22-rdf-syntax-ns#">
      <rdf:Description rdf:about=""/>
   </rdf:RDF>
</x:xmpmeta>
                                                                                                    
                                                                                                    
                                                                                                    
                                                                                                    
                                                                                                    
                                                                                                    
                                                                                                    
                                                                                                    
                                                                                                    
                                                                                                    
                                                                                                    
                                                                                                    
                                                                                                    
                                                                                                    
                                                                                                    
                                                                                                    
                                                                                                    
                                                                                                    
                                                                                                    
                                                                                                    
                           
<?xpacket end="w"?></metadata>
<defs>
    <style>
      .cls-1 {
        fill: #1b5e20;
        fill-rule: evenodd;
      }
    </style>
  </defs>
  <path id="Vorm_1" data-name="Vorm 1" class="cls-1" d="M0.906,352c-1.969,4.454-.122,18.9,0,32,0.249,26.843,1.157,48.6,13,54,7.1,3.238,12.071,4.552,16.61,3.714C57.372,436.754,61.952,390.25,90.912,384c7.717-1.666,14.461,1.5,25,4,21.952,5.2,34.652-.284,56,7,24.019,8.195,31.645,24.93,56,29,31.5,5.263,58.007-11.772,69-18,38.641-21.882,158.034-20.762,299.018,3,146.593,24.707,234.66,67.894,308.018,25,18.924-11.065,46.688-32.784,87.005-32,23.465,0.456,46.895,10.928,53.005,14,33.87,17.039,150.2,65.6,274.17,59.713,68.19-3.236,122.38-19.317,164.85-41.713,49.35-26.014,76.96-55.6,118.01-50,70.91,9.677,104.11,116.445,128.01,160,70.05,127.661,115.38,350.15,160.01,352,30.55,1.266,45.39-76.392,96-192,66.53-151.965,133.93-238.737,96.01-288-31.96-41.519-120.41-32.6-150.01-37-2.74-.407-9-1.246-15,0-2.7.561-5.07,1.522-8,2a48.328,48.328,0,0,1-12,0c-15.13-2.113-100.59-2.895-157.01-8-99.9-9.04-184.75,4.063-288.02,4-53.13-.033-154.74-2.914-234.01-5-12.06-.317-24.66-0.658-37-1-224.084-6.2-490.95,15-749.048-13C228.125,336,26.918,293.178.906,352Z" transform="translate(0 -322.25)"/>
</svg>
